<?xml version="1.0" encoding="UTF-8" standalone="no"?>
<!DOCTYPE svg PUBLIC "-//W3C//DTD SVG 1.1//EN" "http://www.w3.org/Graphics/SVG/1.1/DTD/svg11.dtd">
<!-- Created with Vectornator (http://vectornator.io/) -->
<svg height="100%" stroke-miterlimit="10" style="fill-rule:nonzero;clip-rule:evenodd;stroke-linecap:round;stroke-linejoin:round;" version="1.1" viewBox="0 0 1024 1024" width="100%" xml:space="preserve" xmlns="http://www.w3.org/2000/svg" xmlns:xlink="http://www.w3.org/1999/xlink">
<defs/>
<path d="M0 0L1024 0L1024 1024L0 1024L0 0Z" fill="#ffffff" fill-rule="nonzero" opacity="1" stroke="none"/>
<clipPath id="ArtboardFrame">
<rect height="1024" width="1024" x="0" y="0"/>
</clipPath>
<g clip-path="url(#ArtboardFrame)" id="レイヤー-1">
<path d="M96.5 525.273C96.5 470.044 141.272 425.273 196.5 425.273L827.5 425.273C882.728 425.273 927.5 470.044 927.5 525.273L927.5 1024L96.5 1024L96.5 525.273Z" fill="#dae6f5" fill-rule="nonzero" opacity="1" stroke="none"/>
<path d="M143.351 533.836C143.351 500.699 170.214 473.836 203.351 473.836L820.649 473.836C853.786 473.836 880.649 500.699 880.649 533.836L880.649 672.581C880.649 683.627 871.694 692.581 860.649 692.581L163.351 692.581C152.306 692.581 143.351 683.627 143.351 672.581L143.351 533.836Z" fill="#bdcde1" fill-rule="nonzero" opacity="1" stroke="none"/>
<path d="M143.351 732.634C143.351 724.493 149.951 717.894 158.092 717.894L298.688 717.894C306.829 717.894 313.428 724.493 313.428 732.634L313.428 858.124C313.428 866.264 306.829 872.864 298.688 872.864L158.092 872.864C149.951 872.864 143.351 866.264 143.351 858.124L143.351 732.634Z" fill="#eef3f8" fill-rule="nonzero" opacity="1" stroke="none"/>
<path d="M335.539 732.634C335.539 724.493 342.138 717.894 350.279 717.894L479.82 717.894C487.961 717.894 494.56 724.493 494.56 732.634L494.56 858.124C494.56 866.264 487.961 872.864 479.82 872.864L350.279 872.864C342.138 872.864 335.539 866.264 335.539 858.124L335.539 732.634Z" fill="#eef3f8" fill-rule="nonzero" opacity="1" stroke="none"/>
<path d="M516.671 732.634C516.671 724.493 523.27 717.894 531.411 717.894L672.007 717.894C680.148 717.894 686.747 724.493 686.747 732.634L686.747 858.124C686.747 866.264 680.148 872.864 672.007 872.864L531.411 872.864C523.27 872.864 516.671 866.264 516.671 858.124L516.671 732.634Z" fill="#eef3f8" fill-rule="nonzero" opacity="1" stroke="none"/>
<path d="M710.572 732.634C710.572 724.493 717.171 717.894 725.312 717.894L865.908 717.894C874.049 717.894 880.649 724.493 880.649 732.634L880.649 858.124C880.649 866.264 874.049 872.864 865.908 872.864L725.312 872.864C717.171 872.864 710.572 866.264 710.572 858.124L710.572 732.634Z" fill="#aad4ff" fill-rule="nonzero" opacity="1" stroke="none"/>
<path d="M143.351 910.937C143.351 902.796 149.951 896.196 158.092 896.196L298.688 896.196C306.829 896.196 313.428 902.796 313.428 910.937L313.428 1036.43C313.428 1044.57 306.829 1051.17 298.688 1051.17L158.092 1051.17C149.951 1051.17 143.351 1044.57 143.351 1036.43L143.351 910.937Z" fill="#eef3f8" fill-rule="nonzero" opacity="1" stroke="none"/>
<path d="M335.539 910.937C335.539 902.796 342.138 896.196 350.279 896.196L479.82 896.196C487.961 896.196 494.56 902.796 494.56 910.937L494.56 1036.43C494.56 1044.57 487.961 1051.17 479.82 1051.17L350.279 1051.17C342.138 1051.17 335.539 1044.57 335.539 1036.43L335.539 910.937Z" fill="#eef3f8" fill-rule="nonzero" opacity="1" stroke="none"/>
<path d="M516.671 910.937C516.671 902.796 523.27 896.196 531.411 896.196L672.007 896.196C680.148 896.196 686.747 902.796 686.747 910.937L686.747 1036.43C686.747 1044.57 680.148 1051.17 672.007 1051.17L531.411 1051.17C523.27 1051.17 516.671 1044.57 516.671 1036.43L516.671 910.937Z" fill="#eef3f8" fill-rule="nonzero" opacity="1" stroke="none"/>
<path d="M710.572 910.937C710.572 902.796 717.171 896.196 725.312 896.196L865.908 896.196C874.049 896.196 880.649 902.796 880.649 910.937L880.649 1036.43C880.649 1044.57 874.049 1051.17 865.908 1051.17L725.312 1051.17C717.171 1051.17 710.572 1044.57 710.572 1036.43L710.572 910.937Z" fill="#aad4ff" fill-rule="nonzero" opacity="1" stroke="none"/>
<g fill="#000000" opacity="1" stroke="none">
<path d="M268.801 307.577L268.801 307.577C265.1 312.543 260.158 315.072 253.974 315.166C241.513 315.4 235.189 307.882 235.002 292.61C235.189 277.245 241.513 269.656 253.974 269.843C260.158 270.03 265.1 272.583 268.801 277.502L268.801 277.502L279.622 267.875C276.437 264.034 272.689 260.966 268.379 258.67C264.069 256.422 259.08 255.251 253.412 255.157C244.792 255.063 237.227 257.944 230.715 263.8C223.97 269.749 220.503 279.353 220.316 292.61C220.503 305.727 223.97 315.213 230.715 321.069C237.227 326.924 244.792 329.852 253.412 329.852C259.08 329.759 264.069 328.517 268.379 326.128C272.689 323.833 276.437 320.858 279.622 317.204L268.801 307.577Z"/>
<path d="M328.107 329.009L342.794 329.009L342.794 279.189C342.7 270.288 339.913 264.011 334.432 260.357C328.951 256.796 321.619 255.063 312.438 255.157C301.569 254.969 293.348 258.53 287.773 265.838L299.297 274.621L299.297 274.621C300.562 272.513 302.295 271.014 304.497 270.124C306.605 269.374 309.486 269 313.14 269C323.212 268.812 328.201 271.928 328.107 278.345L328.107 286.005L307.8 286.005C300.023 286.098 294.121 288.206 290.092 292.329C286.063 296.358 284.049 301.44 284.049 307.577C284.049 313.995 286.368 319.265 291.006 323.387C295.409 327.604 301.686 329.759 309.838 329.852C314.803 329.852 318.691 329.243 321.502 328.025C324.36 326.854 326.468 325.027 327.826 322.544L328.107 322.544L328.107 329.009ZM328.107 303.361C328.107 308.842 326.96 312.355 324.664 313.901C322.135 315.447 317.801 316.173 311.665 316.08C306.793 316.08 303.303 315.119 301.195 313.199C298.993 311.465 297.892 309.357 297.892 306.874C297.798 301.206 302.014 298.278 310.54 298.091L328.107 298.091L328.107 303.361Z"/>
<path d="M361.766 311.301C361.766 317.719 363.593 322.287 367.247 325.004C370.714 327.674 375.117 329.009 380.457 329.009L386.992 329.009L386.992 315.166L381.933 315.166C378.279 315.166 376.452 313.503 376.452 310.177L376.452 226.558L361.766 226.558L361.766 311.301Z"/>
<path d="M441.732 307.577L441.732 307.577C438.031 312.543 433.089 315.072 426.905 315.166C414.444 315.4 408.12 307.882 407.932 292.61C408.12 277.245 414.444 269.656 426.905 269.843C433.089 270.03 438.031 272.583 441.732 277.502L441.732 277.502L452.553 267.875C449.367 264.034 445.62 260.966 441.31 258.67C437 256.422 432.011 255.251 426.343 255.157C417.723 255.063 410.158 257.944 403.646 263.8C396.9 269.749 393.434 279.353 393.246 292.61C393.434 305.727 396.9 315.213 403.646 321.069C410.158 326.924 417.723 329.852 426.343 329.852C432.011 329.759 437 328.517 441.31 326.128C445.62 323.833 449.367 320.858 452.553 317.204L441.732 307.577Z"/>
<path d="M462.742 304.556C462.835 312.8 465.529 319.031 470.823 323.247C475.695 327.557 481.152 329.759 487.195 329.852C494.972 329.852 501.272 326.971 506.097 321.209L506.379 321.209L506.379 329.009L521.065 329.009L521.065 256.07L506.379 256.07L506.379 299.496C506.379 304.415 505.02 308.256 502.303 311.02C499.633 313.784 496.19 315.166 491.973 315.166C487.757 315.166 484.291 313.784 481.574 311.02C478.81 308.256 477.428 304.415 477.428 299.496L477.428 256.07L462.742 256.07L462.742 304.556Z"/>
<path d="M540.037 311.301C540.037 317.719 541.864 322.287 545.518 325.004C548.985 327.674 553.388 329.009 558.729 329.009L565.263 329.009L565.263 315.166L560.204 315.166C556.55 315.166 554.723 313.503 554.723 310.177L554.723 226.558L540.037 226.558L540.037 311.301Z"/>
<path d="M615.435 329.009L630.121 329.009L630.121 279.189C630.028 270.288 627.24 264.011 621.759 260.357C616.278 256.796 608.947 255.063 599.765 255.157C588.897 254.969 580.676 258.53 575.101 265.838L586.625 274.621L586.625 274.621C587.89 272.513 589.623 271.014 591.825 270.124C593.933 269.374 596.814 269 600.468 269C610.54 268.812 615.529 271.928 615.435 278.345L615.435 286.005L595.128 286.005C587.351 286.098 581.449 288.206 577.42 292.329C573.391 296.358 571.377 301.44 571.377 307.577C571.377 313.995 573.696 319.265 578.333 323.387C582.737 327.604 589.014 329.759 597.165 329.852C602.131 329.852 606.019 329.243 608.83 328.025C611.688 326.854 613.796 325.027 615.154 322.544L615.435 322.544L615.435 329.009ZM615.435 303.361C615.435 308.842 614.287 312.355 611.992 313.901C609.462 315.447 605.129 316.173 598.992 316.08C594.12 316.08 590.63 315.119 588.522 313.199C586.321 311.465 585.22 309.357 585.22 306.874C585.126 301.206 589.342 298.278 597.868 298.091L615.435 298.091L615.435 303.361Z"/>
<path d="M649.937 256.07L642.629 256.07L642.629 267.243L649.937 267.243L649.937 311.02C649.937 316.782 651.623 321.186 654.996 324.231C658.276 327.416 662.492 329.009 667.645 329.009L675.304 329.009L675.304 315.166L669.823 315.166C666.263 315.26 664.529 313.456 664.623 309.755L664.623 267.243L675.304 267.243L675.304 256.07L664.623 256.07L664.623 233.865L649.937 233.865L649.937 256.07Z"/>
<path d="M685.493 292.469C685.493 300.152 686.125 306.008 687.39 310.036C688.702 314.065 690.716 317.555 693.433 320.506C695.448 322.802 698.258 324.863 701.865 326.69C705.426 328.704 709.993 329.759 715.568 329.852C721.33 329.759 725.991 328.704 729.551 326.69C731.472 325.847 733.041 324.84 734.259 323.669C735.618 322.638 736.765 321.584 737.702 320.506C740.607 317.555 742.668 314.065 743.886 310.036C745.057 306.008 745.643 300.152 745.643 292.469C745.643 284.787 745.057 278.884 743.886 274.762C742.668 270.733 740.607 267.337 737.702 264.573C735.782 262.137 733.065 259.958 729.551 258.038C725.991 256.211 721.33 255.251 715.568 255.157C709.993 255.251 705.426 256.211 701.865 258.038C698.258 259.958 695.448 262.137 693.433 264.573C690.716 267.337 688.702 270.733 687.39 274.762C686.125 278.884 685.493 284.787 685.493 292.469ZM730.957 292.61C730.957 297.576 730.722 301.23 730.254 303.572C729.785 305.961 728.825 308.069 727.373 309.896C726.295 311.301 724.703 312.543 722.595 313.62C720.58 314.651 718.238 315.166 715.568 315.166C713.085 315.166 710.789 314.651 708.681 313.62C706.667 312.543 705.027 311.301 703.763 309.896C702.498 308.069 701.584 305.961 701.022 303.572C700.46 301.23 700.179 297.529 700.179 292.469C700.179 287.363 700.46 283.616 701.022 281.226C701.584 278.931 702.498 276.917 703.763 275.183C705.027 273.544 706.667 272.255 708.681 271.319C710.789 270.335 713.085 269.843 715.568 269.843C718.238 269.843 720.58 270.335 722.595 271.319C724.703 272.255 726.295 273.544 727.373 275.183C728.825 276.917 729.785 278.931 730.254 281.226C730.722 283.616 730.957 287.41 730.957 292.61Z"/>
<path d="M761.031 329.009L775.718 329.009L775.718 285.091C775.811 279.751 777.357 275.886 780.355 273.497C783.025 271.061 786.234 269.843 789.982 269.843C793.308 269.843 796.517 271.061 799.609 273.497L799.609 273.497L810.29 260.778C805.933 257.124 800.827 255.251 794.971 255.157C787.148 255.157 780.824 258.038 775.999 263.8L775.718 263.8L775.718 256.07L761.031 256.07L761.031 329.009Z"/>
</g>
</g>
</svg>
